<svg width="18" height="8" viewBox="0 0 18 8" fill="none" xmlns="http://www.w3.org/2000/svg">
<path fill-rule="evenodd" clip-rule="evenodd" d="M7.46361 2.35155C6.77802 2.73478 6.4873 3.20201 6.44971 3.54734L6.32711 4.6737L5.24949 4.32378C4.29285 4.01315 3.67799 4.03055 3.291 4.14691C2.92507 4.25695 2.66406 4.48466 2.46061 4.82558C2.00759 5.58476 1.92786 6.75045 1.92786 7.69597L0.0855713 7.69597C0.0855721 6.77887 0.135153 5.12737 0.878594 3.88153C1.27338 3.21995 1.8774 2.6482 2.76051 2.38266C3.39802 2.19096 4.12093 2.17697 4.93059 2.33734C5.28448 1.66381 5.88858 1.12138 6.56472 0.743439C7.57374 0.179432 8.87584 -0.105262 10.2351 0.03571C13.0318 0.325772 15.9285 2.384 17.257 7.14624L15.4825 7.64129C14.3207 3.47687 11.9622 2.06701 10.045 1.86817C9.04729 1.76469 8.12771 1.98034 7.46361 2.35155Z" fill="#0C8BFF"/>
</svg>
